<svg viewBox="0 0 512 512" xmlns="http://www.w3.org/2000/svg">
  <path fill="orange" d="M256 448c-114.69 0-216-91.31-216-208S141.31 32 256 32s216 91.31 216 208-91.31 208-216 208zm0-448c-57.86 0-111.72 21.53-150.74 56.49L154.74 232.49c-19.37-19.37-25.37-44.8-16.97-68.17C132.58 101.06 108.69 72 72 72S32 108.69 32 141.06c15.6 23.31 40.97 46.8 68.17 16.97L256 192c29.26 0 58.47-11.16 82.74-30.49zM72 448c-35.35 0-66.67-23.94-82.74-56.49L25.26 288.49c-16.97 19.37-25.37 44.8-16.97 68.17C46.31 427.06 72 453.69 72 488z"/>
</svg>